<?xml version="1.0" encoding="UTF-8"?>
<svg xmlns="http://www.w3.org/2000/svg" viewBox="0 0 1000 500">
  <defs>
    <style>
      .cls-1 {
        fill: #675354;
      }

      .cls-2 {
        fill: #efa061;
      }

      .cls-3 {
        fill: #e9f5d5;
      }

      .cls-4 {
        fill: #ff5768;
      }

      .cls-5 {
        fill: #e3f9ff;
      }

      .cls-6 {
        fill: #ef9261;
      }

      .cls-7 {
        fill: #ffad61;
      }

      .cls-8 {
        fill: #e49e54;
      }

      .cls-9 {
        fill: #fff;
      }

      .cls-10 {
        fill: #ffd9b9;
      }

      .cls-11 {
        fill: #ffca61;
      }

      .cls-12 {
        fill: #ffd361;
      }

      .cls-13 {
        fill: #ffc3ce;
      }

      .cls-14 {
        fill: #ffb661;
      }

      .cls-15 {
        fill: #654d7c;
      }

      .cls-16 {
        fill: #996a55;
      }

      .cls-17 {
        fill: #995754;
      }

      .cls-18 {
        fill: #7fa467;
      }

      .cls-19 {
        fill: #934f68;
      }

      .cls-20 {
        fill: #b57154;
      }

      .cls-21 {
        fill: #8db867;
      }

      .cls-22 {
        fill: #b3cc79;
      }

      .cls-23 {
        fill: #8f6152;
      }

      .cls-24 {
        fill: #ac7455;
      }

      .cls-25 {
        fill: #ac7254;
      }

      .cls-26 {
        fill: #ac4f68;
      }

      .cls-27 {
        fill: #b36954;
      }

      .cls-28 {
        fill: #bddab5;
      }

      .cls-29 {
        fill: #cb7d54;
      }

      .cls-30 {
        fill: #c9f9ff;
      }

      .cls-31 {
        fill: #d2e3b5;
      }

      .cls-32 {
        fill: #d39054;
      }

      .cls-33 {
        fill: #dd8161;
      }

      .cls-34 {
        fill: #da8e54;
      }

      .cls-35 {
        fill: #d8f9ff;
      }

      .cls-36 {
        fill: #dbadc9;
      }

      .cls-37 {
        fill: #427b63;
      }

      .cls-38 {
        fill: #9c4f68;
      }

      .cls-39 {
        fill: #6f657c;
      }

      .cls-40 {
        fill: #966154;
      }

      .cls-41 {
        fill: #894f68;
      }

      .cls-42 {
        fill: #5c5354;
      }

      .cls-43 {
        fill: #5a8467;
      }

      .cls-44 {
        fill: #529c67;
      }

      .cls-45 {
        fill: #5d9667;
      }

      .cls-46 {
        fill: #7c5d54;
      }

      .cls-47 {
        fill: #74a667;
      }

      .cls-48 {
        fill: #517067;
      }

      .cls-49 {
        fill: #7b4b68;
      }
    </style>
  </defs>
  <g id="BACKGROUND">
    <g>
      <rect class="cls-35" width="1000" height="500"/>
      <rect class="cls-35" width="1000" height="500"/>
      <path class="cls-30" d="M512.28,217.4c-71.07-11.48-146.12,11.25-214.8-10.33-39.07-12.28-72.53-37.96-110.42-53.51-51.08-20.97-132.51-25.45-187.06,3.78V500H738.11c.19-18.44-2.47-37.23-6.6-55.04-25.28-108.85-108.91-209.74-219.23-227.56Z"/>
      <path class="cls-5" d="M0,39.05c55.46-14.81,104.12-25.06,162.31-14.73,63.1,11.2,122.19,38.9,177.18,71.81,42.15,25.22,83.15,54.02,130.28,67.86,67.37,19.79,140.12,6.84,206.92-14.79,31.97-10.36,63.56-22.73,96.79-27.76,77.69-11.75,153.86,17.35,226.52,50.07V0H0V39.05Z"/>
    </g>
  </g>
  <g id="OBJECTS">
    <g>
      <g>
        <path class="cls-31" d="M493.46,335.15s-16-69.18-52.19-72.13c-39.81-3.25-41.81,15.02-48.32,12.02-6.51-3-8.01-9.26-14.52-13.27-6.51-4.01-31.3-6.26-42.56,2-1.88,1.38-2.85-.11-4.89-1.25-8.1-4.52-15.88-9.63-23.24-15.28-6.54-5.01-12.81-10.48-20.1-14.32-15.47-8.14-33.96-8.11-51.25-5.54-5.13,.76-10.24,1.73-15.23,3.16-11.28,3.23-21.73,8.76-32.56,13.27-10.83,4.52-22.43,8.09-34.12,7.07-1.31-.11-2.66-.3-3.76-1.03-.97-.64-1.64-1.64-2.25-2.63-1.95-3.17-3.6-6.52-4.91-10.01,0,0-8.15-28.23-30.14-29.69-21.99-1.47-22.96,.98-27.85-6.6S50.99,165.51,0,190.18v160.98H495.64l-2.18-16.02Z"/>
        <path class="cls-3" d="M948.71,212.5c-17.09,3.83-32.84,13.44-44.05,26.89-5.45-2.5-11.5-2.92-17.48-2.44-5.98,.47-11.82,2.01-17.57,3.73-7.16-7.23-18.52-10.66-28.69-10.83-10.17-.16-20.36,3.79-27.75,10.79-4.88,4.62-9.18,10.83-15.81,11.92-2.89,.48-5.83-.13-8.76-.11-7.83,.04-14.88,4.44-21.45,8.69-10.69-1.17-21.77-6.17-32.53-6.07-5.6,.05-11.08,1.53-16.41,3.21-6.37,2.01-12.66,4.34-18.65,7.3-28.66,14.16-49.29,43.43-52.98,75.18l353.43-11.64v-111.1c-15.88-7.39-34.19-9.34-51.29-5.52Z"/>
        <path class="cls-31" d="M977.93,271.88c-7,1.54-14.22,3.67-21.21,2.07-7.71-1.76-14.1-7.88-21.98-8.56-8.12-.71-15.59,4.53-23.7,5.37-6.52,.68-12.96-1.51-19.46-2.42-13.34-1.86-26.98,1.79-38.97,7.91-10.41,5.31-20.1,12.79-25.71,23.05-6.2,11.34-6.79,24.8-7.24,37.72l180.33-3.74v-60.47c-6.1-3.76-15.07-2.47-22.07-.93Z"/>
        <path class="cls-28" d="M251.07,293.16c-40.31-5.9-54.03,15.89-63.46,15.29-9.43-.6-28.42-38.41-98.7-12.2,0,0-16.7,6.29-26.35,1.27-9.65-5.02-17.72-18.55-34.42-12.79-16.71,5.76-28.13,15.55-28.13,15.55v45.87H284.75s6.63-47.08-33.68-52.98Z"/>
      </g>
      <g>
        <path class="cls-45" d="M961.04,329.12c-1.28-3.24-2.56-6.48-3.84-9.72-1.73,2.51-3.15,5.02-4.28,7.85-.59-1.04-2.04-1.32-3.17-.95-1.14,.37-2.08,.91-2.94,1.74-.72-.5-1.33-1.16-1.79-1.91-1.01,.68-1.77,1.75-2.36,2.82-1.12-3.15-2.79-6.11-4.91-8.71-1.96,2.91-3.68,5.85-5.21,9h-144.69c-13.67-.97-27.38-1.93-41.05-1.1-3.77,.23-7.53,.6-11.29,.96-6.27,.61-12.56,1.02-18.83,1.63-.76-.66-1.41-1.44-1.9-2.32-3.58,1.89-8.36,2.5-11.81,.38-1.07-.66-1.91-1.68-2.35-2.86-1.39,1.44-2.9,2.99-4.57,4.09-1.65-1.44-4.24-2.07-6.27-1.28-.62-1.31-1.34-2.57-2.15-3.76-.09-.13-.2-.27-.35-.28-.15,0-.27,.11-.37,.22-1.08,1.18-2.07,2.41-2.66,3.89-2.33-.32-4.73-.64-7.02-.12-.83,.19-1.68,.49-2.5,.3-.41-.1-.78-.31-1.15-.51-1.16-.63-2.9-1.08-3.72-.03-.02-2.16-.4-4.31-1.14-6.35-.97,1.42-1.96,2.79-2.94,4.21-.93-.64-1.95-1.25-2.88-1.9-2.06,1.93-4,3.88-6.06,5.81-6.3-.33-12.61-.66-18.91-.99-2.65-.14-5.29-.28-7.94-.41-1.25-.07-2.5-.13-3.74,.02-2.82,.33-5.32,1.37-8.16,1.33-1.09-.01-1.48-1.61-2.51-1.95-.62-.2-1.28,.12-1.88,.39-2.36,1.06-5.01,1.46-7.58,1.12-.43-.06-.91-.16-1.18-.5-.28-.36-.33-.94-.76-1.09-.28-.1-.58,.05-.84,.2-1.43,.81-2.86,1.61-4.29,2.42-1.59-2.66-3.17-5.33-4.76-7.99-.23-.38-.49-.79-.9-.93-.49-.17-1.02,.09-1.47,.34-4.91,2.69-10.91,5.67-15.82,8.36-1.95-.54-4.08-.38-5.92,.47-.63-1.03-1.49-1.91-2.5-2.57-1.7,.96-3.41,1.92-5.11,2.88-1.09-3.72-3.9-6.9-7.45-8.45-1.34,2.07-2.69,4.13-4.03,6.2-.5,.78-1.24,1.66-2.15,1.48-1.34-.26-1.44-2.51-2.77-2.84-1.48-.37-2.39,2-3.92,2.02-1.52,.02-2.06-2.18-3.46-2.78-1.71-.73-3.28,1.19-4.92,2.06-1.33,.71-2.9,.73-4.41,.73-11.76,.01-23.54,.37-35.29-.15-.77-.03-1.02-1.01-1.21-1.76-.36-1.39-1.26-2.63-2.48-3.4-1.56,.57-2.92,1.64-4.18,2.72-1.15-.81-2.37-1.82-3.16-2.98-1.23,.95-2.51,1.88-3.74,2.83-1.72-2-3-4.57-3.89-7.05-3.34,2.78-6.42,5.83-9.11,9.25-11.59,.17-23.18,.34-34.76,.51-3.34,.05-6.7,.1-10-.42-2.88-.45-6.02-1.55-8.03,.55-.88-1.51-.97-3.49-2.23-4.71-1.26,.34-2.58,.66-3.84,1-.9-1.58-1.72-3.64-2.03-5.43-2.6,3.79-5.52,7.4-8.59,10.83-.98-1.13-2.48-2.53-3.46-3.67-1.56,.74-3.27,1.44-4.87,2.1-.58-1.15-1.51-2.44-2.32-3.44-1.04,.76-2.08,1.6-3.02,2.47-1.55-2.43-3.32-4.73-5.06-7.03-1.58,2.49-2.37,4.85-3.32,7.64H211.05c-.22-.83-.65-1.54-1.24-2.17-.92,.73-2.07,1.44-2.99,2.18-.91-2.53-1.91-5.04-2.92-7.54-1.06,.99-2.22,1.84-3.44,2.62-1.44-4.3-.5-9.31-1.98-13.6-1.68,3.62-3.35,7.24-5.03,10.86-.4,.87-.81,1.75-1.35,2.55-.47,.68-1.03,1.3-1.59,1.91-.77,.84-.78,1.71-1.83,2.17-1.3,.58-2.61,1.16-3.91,1.75-.22,.1-.46,.2-.7,.13-.17-.05-.3-.19-.43-.32-.51-.54-1.03-1.09-1.54-1.63-1.02,.35-2.04,.69-3.05,1.04-.41,.14-.85,.28-1.28,.21-.45-.07-.83-.36-1.18-.64-1.18-.92-2.35-1.84-3.53-2.76-1.61,1.94-4.39,2.99-6.87,2.58-.46-.7-.92-1.4-1.39-2.1-.09-.13-.19-.28-.33-.34-.25-.11-.54,.03-.77,.16-1.21,.7-2.42,1.44-3.78,1.75s-2.92,.11-3.91-.86c-.2-.2-.4-.44-.68-.52-.25-.07-.51,.02-.76,.1-2.06,.71-3.72,1.38-5.77,2.09-.58-.91-1.2-1.81-1.92-2.62-.88,.07-1.21,.31-2.09,.39-.69-1.23-1.19-2.56-1.48-3.94-.62,.39-1.69,.75-2.42,.71-.93-3.03-1.19-6.84-.88-10-.97,4.41-3.54,8.47-6.89,11.5-1.02-.5-1.81-1.81-2.26-2.85-.46,2.82-2.47,4.79-4.74,6.54-11.03,.38-22.07,.76-33.1,1.14-.3,.01-.62,.01-.86-.17-.25-.19-.33-.53-.41-.83-.37-1.36-1.2-2.6-2.32-3.47-1.58,1.41-3.16,2.83-4.73,4.24l-1.53-1.66c-1.91,1.79-4.88,1.54-7.49,1.31-11-.95-21.76,2.13-32.79,2.13-2.75,0-5.67-.35-8.4-.66-.34-1.26-.78-2.68-1.12-3.94-.46,.6-1.23,1.07-1.83,1.53-.83-2.69-1.66-5.19-2.49-7.88-1.03,2.79-2.06,5.58-3.09,8.37-.69,1.86-1.5,3.66-2.46,5.4-.84,0-1.69,.01-2.53,.01-1.66-1.8-3.73-3.42-5.2-5.37-1.12,1.05-2.41,1.81-3.74,2.59-1.85-1.54-3.62-3.2-5.29-4.92-2.05,2.29-4.16,4.11-6.72,5.82v65.43H1000v-68.91h-38.96Z"/>
        <path class="cls-47" d="M1000,398.02H0v-26.32c2.82-3.18,5.17-6.32,8-9.51,4.01,2.31,8.08,4.64,11.92,7.22,1.81-1.89,3.87-3.63,5.69-5.52,2.58,2.73,5.82,5.06,8.62,7.57,3.11-2.99,5.48-7.07,6.73-11.19-2.13-1.83-4.29-3.88-6.63-5.44,1.44-1.97,2.84-3.95,4.28-5.92,.32-.44,.65-.89,.78-1.41-1.36-.92-2.75-1.83-4.11-2.75,0,0,3.62-5.09,5-7.26,.57-.9,1.16-1.82,1.38-2.87-.95-.73-1.85-1.64-2.68-2.49,0,0,17.97-31.69,22.68-51.15,0,0,9.01,36.46,14.95,46.49-2.09,.94-4.96,1.23-7.16,.57,2.72,3.79,5.64,7.46,8.81,10.88-1.69,.33-3.42,.49-5.13,.42,1.91,3.43,3.98,7.48,6.54,10.46-2.09,5.26-3.74,10.68-5.15,16.16,1.51-.26,3.06-.07,4.6-.04,3.41,.06,6.86-1.1,10.19-.36,.92-1.59,1.89-3.15,2.82-4.74-.89-.4-2.14-.97-3.04-1.36,2.62-3.66,3.73-8.09,5-12.41-1.27-.36-2.32-.94-3.32-1.79l16.57-38.07,9.63,23.35-4.51-.61,7.37,18.64-3.07,.2,6.14,13.52-2.05,1.23,6.35,8.6s5.94-7.78,7.37-13.31c1.48,4.78,3.78,9.46,7.27,13.05,.42,.43,.97,.88,1.54,.73,.27-.07,.49-.27,.7-.45,1.12-1.02,2.25-2.04,3.37-3.07,.7,1.13,1.77,2.09,2.99,2.6,.18,.08,.39,.15,.58,.1,.16-.04,.3-.16,.42-.28,.87-.83,1.6-1.8,2.15-2.87,.7,.77,1.42,1.5,2.12,2.27,.68-.87,.94-1.98,1.21-3.05,1.37-5.52,3.26-10.9,5.63-16.07,.22,3.18,1.55,5.97,2.63,8.97,.7,1.94,1.4,3.89,2.1,5.83,.14,.39,.37,.86,.79,.88,.51-.79,1.09-1.55,1.71-2.26,.82,1.12,1.55,2.41,2.19,3.65,1.31-.89,2.5-2.08,3.37-3.41,1.16,1.47,2.86,3.31,4.29,4.51,1.65-1.58,3.43-3.06,5.39-4.23,.71,1.45,1.65,2.9,2.98,3.81,2.56-1.34,5.16-2.55,7.72-3.89,3.82,.16,7.46,2.14,10.54,4.41h164.94c1.79-1.8,3.18-4.1,4.45-6.29,2.33-.06,4.25,1.92,6.16,3.26,.93,.66,1.94,1.2,2.99,1.63,1.82-3.14,4.07-5.88,6.85-8.22,2.58-.14,4.73,.68,6.79,2.23,1.4-1.67,3.13-3.28,4.93-4.49,1.97,1.36,4.3,2.32,6.58,3.05,1.44-.48,2.62-2.03,4.13-2.2,.9-.1,1.77,.29,2.65,.47,.85,.18,1.75,.15,2.59-.06-1.26-1.31-2.29-2.54-3.76-3.61,1.27-.79,2.22-2.19,3.04-3.45,1.33-2.05,2.66-4.09,3.99-6.14-1.28-1.18-2.4-2.54-3.32-4.03,1.61-1.72,3.53-4.19,4.49-6.35-1.07-.82-2.13-1.71-2.94-2.8,.86-2.32,2.28-4.25,3.75-6.24,1.47-1.99,2.85-4.18,3.09-6.64-1.2-.52-2.49-.9-3.7-1.42-.44-2.08,.04-4.33,.91-6.27,4.32-9.66,9.02-19.14,14.09-28.43,2.69,9.71,10.4,17.19,12.87,26.96-1.54,.39-3.15,.5-4.73,.34,3.88,4.63,6.95,9.95,8.73,15.72-1.42,.24-2.99,.26-4.42,.19,2.06,2.88,4.51,6.26,6.09,9.43-.96,.71-2.01,1.3-3.12,1.75,2.78,3.19,4.79,6.97,5.98,11.04-1.21-.12-2.54-.03-3.74,.18,1.25,1.64,2.55,3.32,3.65,5.06,2-.47,4.12-.45,6.09,.12,.63-.94,1.42-1.92,2.28-2.65,.94,.8,1.8,1.76,2.5,2.77,2.23,.49,4.58,.52,6.83,.21,3.53-5.9,6.97-11.98,10.01-18.15,1.62,1.8,3.09,3.7,4.58,5.61,.77-1.09,2.05-1.42,3.34-1.73,.83,.76,2.56,1.95,3.39,2.71,1.1-.73,2.68-1.01,3.88-1.58,.76,.33,1.88,.83,2.29,1.55,1.96,.91,3.69,1.94,5.35,3.32,1.78,1.48,3.57,2.96,5.35,4.44,1.69,1.4,3.45,2.9,4.21,4.97h90.2c.17,0,.25-.11,.42-.14,.09-.52,.23-1.04,.38-1.55,.41-1.38,1.24-2.6,1.72-3.96,.92,2.04,2.02,3.96,3.31,5.79,.38-.67,.88-1.29,1.48-1.78,.8,.93,1.76,1.73,2.74,2.48-.05-.4,.09-.78,.24-1.15,.7-1.7,1.39-3.41,2.09-5.11,.67,1.81,1.08,3.81,1.47,5.71,.1,.49,.19,.99,.38,1.46,.61,.28,1.3,.09,1.95-.07,1.3-.32,2.64-.47,3.98-.44-.96-.49-1.79-1.24-2.37-2.16,1.14-1.04,2.41-2.48,3.09-3.87-.72-.52-1.35-1.12-1.99-1.73,1.13-1.08,2.23-2.25,3.31-3.37,.73-.75,1.47-1.56,1.75-2.57,.01-.05,.03-.11,0-.16-.03-.05-.11-.05-.13,0-.52-.7-1.27-1.56-1.79-2.25,.25-.65,.65-1.17,1.02-1.76,1.19-1.85,2.37-3.7,3.56-5.54-.71-.4-1.44-.96-2.02-1.55,1.5-1.38,2.42-3.77,3.42-5.55,1.91-3.42,3.56-6.99,4.91-10.67,.22,2.19,1.28,4.19,2.28,6.15,1.41,2.76,2.81,5.53,4.22,8.29-.7,.03-1.42,.16-2.1,.32,1.93,2.23,3.99,4.36,6.14,6.38-1.14,.06-2.42,.09-3.55-.08,1.43,1.99,2.64,4.28,3.8,6.44-.79,0-1.67-.01-2.46-.01,1.41,1.99,2.76,4.02,4.01,6.11-.75,.11-1.49,.12-2.25,.09,1,1.81,1.91,3.66,2.69,5.58,1.6-.16,3.21-.18,4.81-.34,2.4-.24,4.82-.47,7.17-1.04-.53-.36-1.58-.37-2.05-.8,1.01-1.55,2-3.19,3.01-4.74-.65-.24-1.3-.75-1.87-1.15,1.11-2.63,2.27-5.23,3.43-7.84-.75-.36-1.5-.78-2.18-1.26,0-.03,.09-.06,.09-.09,1.83-2.63,3.58-5.51,5.41-8.14-.48-.15-1-.3-1.48-.44,.09-1.04,.71-1.94,1.29-2.8,1.55-2.28,3.1-4.55,4.65-6.83,2.73,3.78,5.03,7.94,6.9,12.21-1.03-.12-2.2-.21-3.23-.33,.17,.03,.28,.22,.36,.37,1.44,2.64,2.88,5.27,4.31,7.91-.65-.04-1.54-.05-2.19-.1,1.06,2.5,1.79,5.11,2.3,7.78-.61,.13-1.17,.1-1.78-.04,1.14,1.32,1.94,2.85,2.59,4.46-.61,.19-1.2,.5-1.65,.95,.42,.47,1.06,.44,1.7,.42,1.63-.04,3.27-.08,4.9-.12,.27-.59,.57-1.17,.84-1.75,.69,.51,1.38,1.02,1.82,1.76,2.03-.05,3.98,.08,6.01,.03,1-1.3,2.05-2.6,3.22-3.75,.9,1.34,1.59,2.78,1.99,4.34h229.44c1.68-5.35,3.01-11.09,3.75-16.64,.78,3.45,1.43,6.97,1.96,10.47,.55-.55,1.1-1.08,1.65-1.63,1.63,3.5,3.44,6.89,5.32,10.25,.9-1.51,1.34-3.05,2.24-4.55,.63,.53,1.87,2.05,2.38,2.69-.05-.95,.39-1.66,.71-2.56,1.49-4.16,3.07-8.28,4.74-12.37,.57-1.4,1.17-2.81,1.41-4.3,.86,4.42,1.85,9.15,3.19,13.45,.65,2.08,1.36,4.18,1.41,6.36,1.13-1.23,2.01-2.57,2.78-4.06,.56,.99,1.45,1.93,2.19,2.81,1.08-1.37,2.95-2.15,4.62-2.66,1.33,1.17,2.76,2.53,3.89,3.9h21.67v42.54Z"/>
      </g>
      <rect class="cls-22" y="396.15" width="998.51" height="103.85"/>
      <circle class="cls-11" cx="530.13" cy="144.47" r="36.1"/>
      <g>
        <path class="cls-43" d="M967.13,47.28c-.85-1.71-2.7-3.07-4.6-3.12,2.07-3.68,3.3-7.83,3.57-12.05,.13-2.05,.04-4.1-.07-6.14-.21-4.01-.51-8.14-2.32-11.73-1.8-3.59-5.68-6.53-9.68-6.25-.75-2.69-1.56-5.48-2.78-7.99h-70.13c-1.83,1.6-3.43,3.44-4.64,5.55-2.51,4.38-3.09,9.79-.68,14.23-4.41,2.76-6.85,8.36-5.86,13.47,.99,5.11,5.43,9.76,10.55,10.68-6.58,4.09-10.91,11.56-11.19,19.3-.07,1.86,.09,3.76,.82,5.47,.77,1.8,2.13,3.3,3.62,4.57,6.06,5.17,15.11,6.99,22.71,4.6,.98,3.54,2.08,7.28,4.81,9.73,1.5,1.35,3.39,2.19,5.3,2.86,8.46,2.96,18,2.73,26.32-.62,8.32-3.35,15.34-9.81,19.38-17.81,8.26-2.38,15.02-10.59,15.7-19.16,.15-1.9,.03-3.89-.82-5.6Z"/>
        <path class="cls-48" d="M948.1,67.05c-4.21,3-9.44,4.2-14.57,4.87-2.26,.29-4.64,.49-6.77-.31-2.63-.98-4.6-3.52-4.91-6.31-1.9,.53-4.19,.52-5.88-.48-1.69-1.01-2.67-3.34-1.7-5.06-6.91-.38-12.59-6.16-15.48-12.45-1.62-3.53-2.61-7.44-2.26-11.31,.66-7.32,5.86-13.4,11.34-18.3,3.75-3.35,7.95-6.51,12.88-7.54,4.93-1.02,10.73,.66,13.15,5.07,1.69-1.48,4.04-2.12,6.29-2.03s4.45,1.17,5.83,2.94c2.43,3.11,2,7.51,1.44,11.42,3.31-1.87,8.1,.68,9.79,4.08s1.37,7.43,.8,11.18c-1.31,8.64-2.83,19.16-9.95,24.23Z"/>
        <polygon class="cls-29" points="973.55 0 973.55 91.02 925.03 18.41 922.61 20.39 973.55 110.94 973.55 453.66 1000 453.66 1000 0 973.55 0"/>
        <path class="cls-21" d="M931.82,207.36c4.79-3.12,9.41-6.49,13.84-10.11,2.19-1.79,4.38-3.69,5.74-6.17,.64-1.17,1.08-2.53,.79-3.82-.3-1.3-1.55-2.43-2.86-2.22,1.78-2.25,2.99-4.95,3.48-7.77,.12-.68,.19-1.37,.09-2.05-.25-1.65-1.6-3.01-3.18-3.54s-3.34-.32-4.89,.3c4.93-6.36,8.13-13.45,10.32-21.19,.9-3.18,1.45-6.92-.58-9.52-1.71-2.19-4.73-2.86-7.5-2.95-2.92-.09-6.14,.44-8.07,2.64,.97-2.48-.07-5.61-2.15-7.27-2.09-1.66-5.26-1.77-7.46-.26,.62-4.27,0-9.55-3.24-12.41-2.14-1.89-5.22-2.17-8.07-2.26-7.3-.22-14.73,.29-21.62,2.71s-13.24,6.94-16.81,13.31c-1.7,3.04-2.75,6.61-2.03,10.01-1.51-.43-3.24,.06-4.26,1.25-1.02,1.19-1.35,2.9-.96,4.42,.38,1.52,1.43,2.84,2.76,3.67-3.29,1.75-6.8,4.22-9.38,6.91-4.85,5.05-8.93,11.16-10.11,18.07-1.18,6.91,1.04,14.67,6.71,18.78,5.13,3.72,12.07,3.92,18.27,2.6-.33,1.34-.7,2.6-.74,3.98-.03,1.38,.26,2.81,1.07,3.93,.59,.81,1.42,1.42,2.29,1.91,2.82,1.61,6.4,2.15,9.36,.82-1.8,2.7-1.21,6.88,1.19,9.06,1.79,1.63,4.33,2.19,6.75,2.23,5.61,.08,10.94-2.3,15.99-4.75,4.9-2.38,10.69-7.37,15.26-10.34Z"/>
        <path class="cls-47" d="M934.92,180.21c-1.01-1.6-2.65-3.09-2.46-4.98,.08-.8,.5-1.53,.85-2.25,2.45-5.1,1.52-11.78-2.61-15.65-4.13-3.87-11.67-4.31-15.8-.45,.03-2.35-1.96-4.38-4.23-5.01-2.27-.63-4.7-.13-6.9,.69-7.98,2.99-14.23,10.9-14.08,19.42,.05,2.87,1.01,6.15,3.49,7.61-3.43,2.22-5.73,6.1-6.03,10.18-.1,1.42,.02,2.87,.54,4.19,.61,1.57,1.74,2.89,2.95,4.06,6.56,6.4,16.25,9.45,25.3,7.96,2.32-.38,4.64-1.07,6.52-2.48l7.2,.62c-1.5-1.21-3.01-2.42-4.51-3.62,3.36-2.45,6.81-4.98,9.03-8.5,2.23-3.51,2.98-8.28,.75-11.8Z"/>
        <g>
          <polygon class="cls-27" points="948.42 231.19 951.7 201.86 949.25 201.86 945.23 226.18 906.06 164.66 903.2 166.25 920.83 197.82 900.07 191.28 900.07 193.88 924.8 204.92 924.8 204.92 973.55 292.2 973.55 270.66 948.42 231.19"/>
          <polygon class="cls-27" points="931.18 248.12 931.18 250 953.45 256.21 950.6 251.12 931.18 248.12"/>
        </g>
        <polygon class="cls-27" points="935.83 43.24 914.9 35.71 915.64 33.27 932.43 37.18 935.83 43.24"/>
        <polygon class="cls-27" points="949.31 56.99 951.24 38.25 949.31 36.99 946.04 52.09 949.31 56.99"/>
        <g>
          <rect class="cls-17" x="981.68" y="23.93" width="1" height="127.66"/>
          <rect class="cls-17" x="989.96" y="89.25" width="1" height="134.3"/>
          <path class="cls-17" d="M982.68,309.46h-1v-47.65c-9.29-10.99-1.13-21.85,0-23.25v-59.6h1v59.97l-.12,.14c-.39,.45-9.53,11.14,0,22.23l.12,.14v48.02Z"/>
          <path class="cls-17" d="M988.15,324.7h-1v-57.42l.06-.11c3.98-7.57,3.79-13.31,2.93-16.8-.93-3.77-2.83-5.8-2.85-5.82l.72-.69c.08,.08,8,8.61,.14,23.67v57.17Z"/>
          <rect class="cls-17" x="981.68" y="329.7" width="1" height="63.33"/>
          <rect class="cls-17" x="990.65" y="386.73" width="1" height="54.91"/>
          <rect class="cls-17" x="992.08" y="15.1" width="1" height="53.32"/>
        </g>
        <polygon class="cls-17" points="961.3 270.28 973.55 292.2 973.55 270.66 961.3 251.43 961.3 270.28"/>
        <polygon class="cls-27" points="973.55 91.02 925.03 18.41 922.61 20.39 973.55 110.94 973.55 91.02"/>
        <polygon class="cls-17" points="961.3 89.18 973.55 110.94 973.55 91.02 961.3 72.7 961.3 89.18"/>
      </g>
      <g>
        <path class="cls-9" d="M808.77,219h-258.31c7.95,0,15.92-3.74,23.12-7.1-.41-2.04-.46-4.15-.15-6.2,.22-1.44,.65-2.89,1.55-4.03,1.55-1.96,4.32-2.66,6.79-2.27,2.47,.4,4.69,1.73,6.69,3.24,.31-1.99,1.65-3.44,3.33-4.55,1.68-1.12,3.69-1.65,5.69-1.86,4.62-.48,9.74,1,12.37,4.83,.63-5.65,3.74-11.65,7.2-16.15,3.03-3.94,6.67-7.65,11.33-9.4,6.32-2.37,13.58-.72,19.36,2.76s10.37,8.59,14.86,13.62c.93-2.9,3.99-5.38,6.98-5.99s6.18,.25,8.65,2.03c2.47,1.79,4.24,4.43,5.28,7.3,.81-1.47,2.6-2.46,4.27-2.3,1.67,.16,3.19,1.39,3.7,2.99,1.55-1.8,4.16-2.78,6.53-2.59s4.62,1.56,5.87,3.59c3.52-6.28,7.33-13.11,12.15-18.46,4.81-5.35,11.06-9.71,18.15-10.95,3.19-.56,6.69-.41,9.35,1.43,2.65,1.82,4.02,4.96,5.12,7.98,2.91,7.95,4.88,16.25,5.87,24.66,1.12-1.49,2.94-2.88,4.53-3.83,2.13-1.26,4.79-1.6,7.16-.89,2.37,.7,4.43,2.43,5.52,4.65,.78-1.57,2.54-2.59,4.23-3.05,1.69-.47,3.47-.45,5.22-.4,2.18,.06,4.5,.21,6.25,1.51,2.5,1.86,2.97,5.34,3.24,8.44,.1,1.09,.19,2.19,.29,3.28,1.88,2.45,5.1,3.53,8.05,4.45s6.89,2.12,9.75,3.29Z"/>
        <path class="cls-9" d="M761.54,99.81h111.52c-6.53-.66-13.26-4.09-18.3-8.28-1.18-.98-2.29-2.05-3.61-2.82-1.32-.77-2.91-1.23-4.39-.85-1.53,.39-2.71,1.57-3.8,2.7-1-1.52-2.98-2.24-4.81-2.14s-3.54,.87-5.14,1.75c-.83-1.64-2.5-2.73-4.25-3.31-1.75-.57-3.62-.62-5.46-.49-1.57,.11-3.19,.38-4.46,1.31-2.3-.9-4.21-3.29-5.78-5.2-1.71-2.09-3.79-3.87-6.12-5.23-1.61-.94-3.43-1.7-5.28-1.53-2.72,.25-4.93,2.5-5.92,5.05-.99,2.54-1,5.35-.93,8.08-1.36-.87-3.27-.88-4.73-.19-1.81,.84-3.2,2.82-5.19,2.75-.99-.03-1.88-.58-2.81-.9-1.74-.59-3.63-.36-5.45-.12-.42,.05-.87,.12-1.2,.39-.42,.35-.54,.93-.59,1.48-.07,.87-.03,1.75,.14,2.6-3.89,1.77-9.14,4.95-13.42,4.95Z"/>
        <path class="cls-9" d="M520.53,68.42h188.38c-11.39-3.75-23.03-8.63-31.96-16.64-1.79-1.61-3.58-3.43-5.92-3.97-3.7-.85-7.7,1.78-11.26,.45-2.44-.91-4.01-3.49-6.5-4.25-2.18-.66-4.49,.22-6.59,1.09-.77-5.04-1.91-10.02-4.36-14.49-2.45-4.47-6.46-8.31-11.42-9.5-5.48-1.31-11.38,.81-15.63,4.5-4.26,3.69-7.07,8.77-9.21,13.98-2.84-1.19-6.56-1.37-9.23,.18-5.38-2.71-12.47-1.51-16.66,2.82-.54-4.77-4.71-9.03-9.29-10.46-4.58-1.43-9.71-.46-13.84,1.98-4.14,2.44-7.35,6.22-9.76,10.37-1.81,3.11-3.22,6.54-3.45,10.13-1.54-.7-3.32-1.33-4.89-.7-1.36,.55-2.15,1.93-2.83,3.22-1.31-.75-2.91-1.39-4.37-.99-1.37,.37-2.3,1.71-2.6,3.1-.3,1.39-.08,2.83,.13,4.23-2.3,1.64-5.94,4.96-8.76,4.96Z"/>
        <g>
          <path class="cls-9" d="M604.11,278.18c.17-1.28,.36-2.74,.18-4.02-.18-1.28-.77-2.56-1.83-3.3-1.26-.88-2.94-.84-4.46-.61-.67-1.56-1.57-3.23-3.16-3.81-.64-.24-1.35-.26-2.03-.19-2.46,.25-4.77,1.73-6.04,3.86-1.93-2.48-4.03-4.98-6.63-6.73-2.6-1.75-5.99-2.64-8.93-1.54-1.56,.58-2.87,1.67-4.13,2.74-1,.85-2.03,1.75-2.52,2.97-2.07-1.36-4.71-1.9-7.17-1.57-2.46,.34-4.78,1.6-6.4,3.47-2.36-2.59-4.31-5.25-6.67-7.83-3.32-3.63-7.13-7.51-12.03-7.87-3.95-.29-7.8,1.92-10.2,5.08-2.39,3.15-3.49,7.12-3.9,11.06-1.36-.76-2.92-1.19-4.38-.65-1.12,.42-1.91,1.46-2.32,2.58-.41,1.12-.49,2.33-.56,3.52-1.12-.56-2.85,.14-3.81,.95s-1.66,1.88-2.6,2.7c-.79,.68-1.72,1.17-2.66,1.61-3.86,1.82-10.23,3.75-14.48,4.16l13.68-.08h115.88c-1.46-.25-2.93-1.06-4.31-1.57-3.1-1.13-6-2.8-8.53-4.92Z"/>
          <path class="cls-9" d="M612.96,284.67h-1.62c.54,.09,1.09,.11,1.62,0Z"/>
        </g>
        <path class="cls-9" d="M248.06,151.65h292.68c-5.87-5.12-13.95-8.65-21.71-7.97-2.24,.2-4.52,.65-6.7,.11-3.7-.91-6.19-4.41-9.69-5.91-4.24-1.82-9.51-.51-13.41-2.99-1.57-.99-2.73-2.5-4.04-3.81-7.69-7.68-21.64-7.76-29.41-.15-3.23-3.61-8.68-5.12-13.51-4.8-4.83,.32-9.41,2.3-13.57,4.78-2.9-2.13-5.98-4.03-9.45-4.98-3.47-.95-7.45-.64-10.26,1.6-3.6-2.21-7.3-7.49-9.94-10.79-4.81-6.03-11.69-11.4-19.39-10.91-4.65,.3-8.95,2.74-12.35,5.94-3.39,3.19-6,7.12-8.57,11-4.51-3.16-10.93-3.13-15.4,.08-5.05-12.05-18.18-20.21-31.19-19.15-2.1,.17-4.19,.56-6.14,1.34-4.93,1.97-8.6,6.32-10.86,11.12-2.26,4.8-3.29,10.07-4.29,15.28-1.84-2.09-4.46-3.18-7.23-2.9-2.77,.28-5.35,1.97-6.73,4.39-2.56-1.17-5.67-1.79-8.2-.53-2.52,1.26-3.94,4.8-2.26,7.06-5.02,4.82-11.43,12.2-18.39,12.2Z"/>
        <path class="cls-9" d="M183.88,46.3H24.4c2.98,0,6.1-2.88,8.45-4.73,1.56-1.22,3.05-2.79,3.3-4.75,.1-.75,0-1.51,.08-2.26,.18-1.88,1.48-3.61,3.23-4.32,1.75-.71,3.89-.35,5.32,.88-.35-.36-.33-.85-.02-1.24,.31-.39,.79-.61,1.25-.81,1.57-.69,3.18-1.35,4.89-1.48s3.55,.37,4.65,1.68c1.84-3.78,4.98-7.79,8.64-9.86,3.66-2.07,8.15-2.78,12.17-1.54,.93,.29,1.84,.68,2.63,1.26,.94,.69,1.68,1.63,2.39,2.56,2.1,2.74,4.1,5.55,6.01,8.43,.63-.14,1.31-.47,1.95-.61,.99-.22,1.98-.44,2.99-.43,2.18,.01,4.32,1.14,5.56,2.94,1.92-2.03,5.32-2.55,7.83-1.32,1.09,.53,2.01,1.36,3.08,1.93,2.06-3.13,5.6-6.18,9.16-7.34,3.56-1.16,7.82-.55,10.48,2.08,1.08,1.07,1.86,2.4,2.62,3.71,.52,.9,1.04,1.79,1.57,2.69,.94-.13,1.76-1.08,2.59-1.56,1.27-.73,2.93-.43,4.16,.35,1.23,.78,2.14,1.98,3.01,3.15,2.6-2.15,7.15-1.46,8.86,1.45,1.72-1.11,3.84-2.1,5.88-1.86,2.53,.3,4.42,2.35,6.4,3.94,5.58,4.47,13.29,5.94,20.35,7.05Z"/>
      </g>
      <g>
        <g>
          <path class="cls-21" d="M14.63,383.78c-6.85,13.69-2.93,35.94-2.93,35.94l5.87,5.38c1.47-11.25-2.93-41.32-2.93-41.32Z"/>
          <path class="cls-44" d="M35.13,420.02s-.62-9.6,2.83-16.24c0,0,5.78,15.13,5.04,19.56-.74,4.43-7.87-3.32-7.87-3.32Z"/>
          <path class="cls-21" d="M50.02,374.86c-5.91,13.53-1.11,39.99-1.11,39.99l4.8-1.23c1.23-8.49-3.69-38.76-3.69-38.76Z"/>
          <path class="cls-21" d="M52.36,414.85l5.91,2.34c3.32-4.55,8.24-23.62,8.24-23.62-5.91,4.31-14.15,21.29-14.15,21.29Z"/>
          <path class="cls-44" d="M81.45,390.71c3.61,6.75,7.13,38.16,7.13,38.16l5.11,.93c1.57-29.83-12.24-39.09-12.24-39.09Z"/>
          <path class="cls-21" d="M92.75,431.68l8.16,2.83s2.2-28.36,6.44-40.95c0,0-12.09,18.34-14.6,38.12Z"/>
          <path class="cls-44" d="M109.24,412.53s-5.81,15.07-5.02,22.61l7.54,1.73c.63-.16-.94-18.52-2.51-24.33Z"/>
          <path class="cls-37" d="M127.88,458.8c-.05-1.96-.14-3.93-.54-5.85-.55-2.65-1.66-5.15-2.96-7.53-2.37-4.33-5.46-8.37-9.55-11.15-4.09-2.77-9.26-4.17-14.07-3.06-.86,.2-1.57,.48-2.27,1.04-1.39-3.56-4.55-6.38-8.25-7.36s-8.05-.08-11.01,2.34c-.33-6.39-5.14-11.99-11.04-14.46-5.9-2.46-12.66-2.16-18.82-.43-1.98,.55-3.95,1.27-5.61,2.48-2.1,1.53-3.83,3.76-5.26,5.93-1.64-2.1-4.22-3.44-6.88-3.59-2.02-.11-4.08,.46-5.72,1.65-1.64,1.19-3.04,3.02-3.44,5-2.46-3.99-8.19-5.53-12.32-3.33-1.6,.85-2.91,2.15-4.07,3.55-3.64,4.39-5.63,9.06-6.06,14.75v61.22H126.65l.82-27.84c.39-4.44,.53-8.91,.42-13.36Z"/>
          <path class="cls-18" d="M34.24,458.54c.41-1.25,.82-2.49,1.22-3.73,.6-1.84,1.21-3.69,2.24-5.33,.44,.49,.71,1.14,.93,1.76,1.13,3.16,2.03,6.43,2.31,9.77,0,.07,0,.15-.04,.19-.05,.05-.16,0-.13-.07-1.1-.04-2.39,.05-3.44-.28-1.05-.33-2.39-1.46-3.1-2.31Z"/>
          <path class="cls-18" d="M55.68,450.26c0-1.12,3.75-11.98,7.16-15.75v17.4c0,1.16-7.16-1.65-7.16-1.65Z"/>
          <path class="cls-21" d="M46.13,459.72s.51-25.23,11.25-39.37c0,0-.34,19.51,1.36,35.15,1.7,15.64-12.61,4.22-12.61,4.22Z"/>
          <path class="cls-21" d="M22.99,459.67c3.8-8.29,5.81-17.39,5.85-26.5,.68,10.68,4.31,20.96,9.67,30.23-.88,1.87-2.44,3.31-4.45,3.79-2.01,.48-4.23,0-5.87-1.27-.65-.51-1.21-1.13-1.76-1.74-1.12-1.25-2.32-3.25-3.44-4.5Z"/>
          <path class="cls-44" d="M185.21,482.85s.15-8.19,.5-10.77c0,0,5.43,10.92,4.98,11.8-.44,.88-5.49-1.03-5.49-1.03Z"/>
          <path class="cls-21" d="M202.18,487.75s-2.65-13.91-8.06-19.43c0,0-.88,15.57,1.1,18.11,1.99,2.54,6.96,1.32,6.96,1.32Z"/>
          <path class="cls-44" d="M199.08,487.55s4.75-15.93,8.83-19.24c0,0,.66,15.24,0,16.45-.66,1.21-8.83,2.79-8.83,2.79Z"/>
          <path class="cls-44" d="M253.33,466.44s-16.16,22.6-17.99,33.5l12.5,.07s6.46-22.38,5.49-33.56Z"/>
          <path class="cls-21" d="M121.98,417.19c-8.86,13.21-8.52,50.18-8.52,50.18l5.8,8.89c3.07-14.83,2.73-59.06,2.73-59.06Z"/>
          <path class="cls-18" d="M130.5,476.25l2.39-19.09s-13.47,12.1-14.32,20.45,11.93-1.36,11.93-1.36Z"/>
          <path class="cls-21" d="M148.64,479.75s.98-10.27,5.1-16.01c0,0,4.32,16.01,3.92,18.76-.39,2.75-9.02-2.75-9.02-2.75Z"/>
          <path class="cls-37" d="M156.86,480.83l3.33-3.89c1.25-1.46,2.54-2.95,4.25-3.83,2.04-1.06,4.45-1.11,6.75-.96,1.66,.11,3.33,.32,4.88,.92,4.25,1.65,6.85,5.85,9.14,9.78,2.32-2.08,5.77-2.33,8.8-1.58,3.03,.74,5.66,2.69,7.66,5.08,4.15-6.67,10.87-10.76,18.73-10.88,1.86-.03,3.73,.17,5.49,.78,4.82,1.69,7.99,6.22,10.51,10.66,2.26,3.99,5.48,8.85,7.2,13.1l-90.42-.72,3.69-18.45Z"/>
          <path class="cls-44" d="M170.98,500H0v-42.01c1.69-4.02,5.83-6.43,10.07-7.45,2.21-.53,4.55-.65,6.75-.07,2.48,.64,4.67,2.12,6.69,3.7,3.49,2.72,6.68,5.84,9.48,9.28,1.84-2.77,4.3-5.55,7.48-6.53,1.11-.34,2.28-.47,3.44-.53,3.22-.18,6.66,.16,9.26,2.07,1.71-4.44,5.06-7.79,8.47-11.12,1.91-1.86,3.85-3.74,6.17-5.06,4.1-2.33,9.01-2.69,13.72-2.51,2.53,.09,5.13,.35,7.4,1.5,4.33,2.2,6.44,7.08,8.45,11.51,2.27,5,4.82,9.88,7.64,14.6,1.91-1.6,4.46-2.48,6.91-2.05,2.38,.42,4.19,2.34,5.7,4.23,2.17,2.72,4.13,5.61,5.85,8.63,3.91-4.01,8.96-6.89,14.5-7.66,1.66-.23,3.37-.29,5,.13,1.71,.45,3.25,1.41,4.6,2.55,2.24,1.88,4.07,4.25,5.3,6.9,1.08-.03,2.23,.23,3.29-.03,8.95-2.21,12.51,14.57,14.82,19.93Z"/>
          <path class="cls-21" d="M117.72,500H0c.26-5.86,2.18-12.13,5.8-16.74,1.28-1.63,3.03-3.23,5.1-3.13,2.25,.12,3.84,2.15,5.12,4,.94,1.37,1.89,2.74,2.83,4.11,1-4.11,2.93-7.74,5.87-10.78,1.81-1.88,4.12-3.52,6.73-3.56,2.93-.05,5.47,1.91,7.59,3.93,3.86,3.69,7.19,7.92,9.87,12.54-.07-2.59,1.49-5.03,3.81-6.19s5.14-1.09,7.54-.11c-.45-1.73,1.26-3.36,3.04-3.44,1.78-.08,3.42,1.07,4.52,2.48,2.54-2,4.22-5.08,6.65-7.2,4.62-4.04,11.88-5.36,17.04-2.05,5.28,3.39,6.98,10.19,8.25,16.34,2.02-2.41,5.56-3.52,8.66-3.03,3.1,.49,5.88,2.63,7.21,5.48,.96,2.06,2.01,5.07,2.1,7.34Z"/>
        </g>
        <g>
          <path class="cls-37" d="M461.61,476.54c6.35,.28,12.6,4.21,14.91,10.13,.37,.96,.63,2.09,.1,2.98-.32,.54-.89,.88-1.43,1.2-5.28,3.14-10.88,6.37-17.02,6.48-4.68,.09-9.22-1.68-13.3-3.98-1.9-1.08-3.96-2.66-3.93-4.85,.04-3.02,5.43-6.42,7.71-7.99,3.78-2.61,8.34-4.17,12.96-3.96Z"/>
          <path class="cls-44" d="M461.51,500h99.46c1.08-4.5-.77-10.76-5.04-12.53-3.09-1.28-6.76-.97-9.59-2.74-2.81-1.75-4.2-5.2-6.97-7-3.51-2.28-8.17-1.33-12.11,.1-1.24,.45-2.53,.95-3.84,.76-2.03-.29-3.45-2.11-5.22-3.15-4.45-2.63-10.07-.05-15.23-.3-6.63-.32-12.47-5.38-19.1-5.08-6.49,.29-11.66,5.71-14.56,11.52-2.89,5.82-4.77,12.68-7.81,18.42Z"/>
          <path class="cls-47" d="M468.84,490.96c6.91-7.82,18.7-10.9,28.55-7.47,1.47,.51,2.94,1.16,4.5,1.19,1.56,.02,3.04-.58,4.57-.89,4.71-.95,9.63,1.04,13.29,4.15,3.66,3.11,5.39,7.96,7.89,12.06h-163.19c.76-4.59,2.9-9.34,6.13-12.7s8.26-5.22,12.7-3.8c2.3,.74,4.26,2.25,6.16,3.74,1.64-2.65,4.83-4.17,7.95-4.18,3.11-.01,6.12,1.21,8.75,2.89,1.84-3.32,5.55-6.18,9.07-7.6,3.52-1.42,7.38-1.85,11.18-1.7,5.57,.22,11.13,1.67,15.93,4.51s8.8,7.1,11.03,12.21c.5-1.42,1.85-2.38,3.23-2.97,1.38-.59,2.9-.77,4.39-.86,2.4-.14,4.98-.02,6.93,1.39"/>
        </g>
        <g>
          <path class="cls-37" d="M853.46,482.32c-2.46-4.42-6.84-7.72-11.77-8.85s-10.31-.09-14.45,2.81c-.86,.6-1.76,1.31-2.81,1.31-.81,0-1.55-.44-2.29-.78-3.91-1.79-8.94-.74-11.81,2.46-7.17-3.44-16-3.16-22.94,.72-6.94,3.88-13.1,12.1-13.93,20.01h73.47l6.53-17.68Z"/>
          <path class="cls-44" d="M911.19,478.44c-3.16-4.41-7.08-8.42-12.01-10.7-4.92-2.27-10.96-2.58-15.64,.14-.68,.39-1.35,.85-2.12,.96-1.31,.19-2.51-.66-3.67-1.29-5.05-2.75-11.47-1.78-16.48,1.03s-8.91,7.21-12.68,11.55c-.51,.59-1.06,1.2-1.79,1.45-.96,.33-2-.04-2.99-.23-4.89-.94-9.52,2.31-13.36,5.48-.68,.57-1.41,1.15-2.28,1.31-1.19,.21-2.34-.41-3.45-.89-4.37-1.9-9.61-1.7-13.82,.54-4.21,2.24-9.91,7.51-10.78,12.2h113.52l-2.43-21.56Z"/>
          <path class="cls-47" d="M852.85,500h147.15v-19.81c-.67-1.3-2.18-2.61-3.58-3.01-1.4-.4-2.89-.41-4.35-.39-1.22,.02-2.44,.05-3.64,.29-2.17,.44-4.14,1.54-6.07,2.63-2.45-4.09-7.1-6.54-11.84-6.94s-9.52,1.05-13.67,3.38c-2-5.94-8.4-9.35-14.6-10.3-13.38-2.06-27.69,4.22-35.24,15.45-1.72-2.02-4.5-2.83-7.15-2.58-2.64,.25-5.11,1.52-7.18,3.18-4.73-3.55-10.61-6.51-16.5-7.09-5.88-.58-12.22,1.37-15.95,5.96-4.38,5.38-3.34,13.6-7.39,19.23Z"/>
        </g>
      </g>
      <g>
        <g>
          <path class="cls-26" d="M790.38,289.19s32.29-12.4,76.91,34.93c51.32,54.44,86.12,133.87,86.12,133.87h-165.55l2.52-168.8"/>
          <path class="cls-19" d="M953.41,457.99s-10.79-24.63-29.22-55.85c-4.33,13.93-15.36,39.67-51.73,55.85h80.94Z"/>
          <path class="cls-49" d="M917.89,457.99h35.52s-6.14-14-17.05-34.27c-1.38,9.9-5.84,22.96-18.47,34.27Z"/>
          <path class="cls-36" d="M791.84,306.16l42.82,22.29s17.45-3.47,27.75-9.31c-42.07-41.44-72.03-29.95-72.03-29.95l-.22,15.05,1.68,1.91Z"/>
          <path class="cls-15" d="M866.84,445.5v12.49h86.57s-2.05-4.67-5.87-12.49h-80.7Z"/>
          <path class="cls-4" d="M790.38,289.19c-78.38,12.17-144.87,168.8-144.87,168.8h232.04s-29.45-162.42-87.17-168.8Z"/>
          <path class="cls-39" d="M645.52,457.99h232.04s-.85-4.69-2.54-12.49h-223.81c-3.69,7.81-5.68,12.49-5.68,12.49Z"/>
          <path class="cls-14" d="M787.86,293.34l-1.61-3.36c-76.57,16.86-140.74,168.01-140.74,168.01h4.02s65.59-148.59,138.33-164.66Z"/>
          <path class="cls-10" d="M715.67,341.13l4.08,1.95c15.14-18,31.88-33.63,49.37-42.73l-2.55-3.08c-18.25,9.39-35.48,25.43-50.9,43.85Z"/>
          <path class="cls-13" d="M834.65,328.45c-12.19-21.39-26.96-37.34-44.27-39.26-21.26,3.3-41.64,17.25-60.07,35.8,12.48,3.33,50.34,11.29,104.34,3.46Z"/>
          <path class="cls-14" d="M834.65,328.45c-1.86,.27-3.69,.52-5.51,.75,27.51,45.19,40.24,109.72,43.55,128.79h4.86s-14.44-79.61-42.9-129.54Z"/>
          <path class="cls-10" d="M843.98,346.85c-2.92-6.42-6.03-12.61-9.33-18.4-1.86,.27-3.69,.52-5.51,.75,3.69,6.05,7.1,12.45,10.27,19.05l4.57-1.39Z"/>
          <path class="cls-41" d="M696.19,445.5s40.9-82.67,76.56-80.04c35.66,2.62,63.81,80.04,63.81,80.04h-140.37Z"/>
          <path class="cls-38" d="M769.12,365.48v80.02h67.44s-28.15-77.42-63.81-80.04c-1.21-.09-2.42-.07-3.63,.03Z"/>
          <g>
            <path class="cls-41" d="M893.86,364.1c-11.6-.02-32.14,3.66-32.14,3.66,0,0,11.26,31.47,13.58,42.08l38.76-3.64c-4.26-14.25-20.21-42.1-20.21-42.1Z"/>
            <path class="cls-38" d="M883.4,373.99l-2.09,3.79s7.64,18.29,11.11,30.46l3.14-.3c-1.73-5.78-7.16-23.45-12.17-33.95Z"/>
            <path class="cls-13" d="M893.86,364.1c-11.6-.02-32.14,3.67-32.14,3.67,0,0,2.2,6.15,4.86,13.93l34.31-4.72c-3.87-7.36-7.03-12.87-7.03-12.87Z"/>
          </g>
          <path class="cls-22" d="M682.8,457.99s-5.48-20.67-15.35-26.7c0,0,5.21,13.37,4.66,26.7h10.69Z"/>
          <path class="cls-22" d="M690.3,441.59l-7.5,16.4h8.4c-1.55-3.88-.9-16.4-.9-16.4Z"/>
          <path class="cls-22" d="M830.26,457.99h8.19c.33-11.14,5.01-35.33,5.01-35.33-11.87,10.87-13.21,35.33-13.21,35.33Z"/>
          <polygon class="cls-22" points="830.26 457.99 822.91 447.9 819.73 457.99 830.26 457.99"/>
          <path class="cls-22" d="M808.86,438.87s-1.84,9.98,.84,19.12h10.03s-7.86-11.09-10.87-19.12Z"/>
          <path class="cls-22" d="M902.02,457.99c-3.14-19.6-15.98-27.78-15.98-27.78,6.55,9.7,5.46,27.78,5.46,27.78h10.51Z"/>
          <path class="cls-22" d="M923.18,429.25c-6.55,8.47-9.11,28.74-9.11,28.74h8.43c-2.73-11.27,.68-28.74,.68-28.74Z"/>
          <path class="cls-22" d="M910.62,440.33s-7.24,7.76-7.92,17.67h11.37s-4-8.5-3.45-17.67Z"/>
          <path class="cls-22" d="M929.33,449.16c-3.55,2.97-5.19,8.83-5.19,8.83h5.74c.96-3.35-.55-8.83-.55-8.83Z"/>
        </g>
        <g>
          <ellipse class="cls-25" cx="487.34" cy="437.65" rx="12.66" ry="20.34"/>
          <path class="cls-46" d="M487.34,451.11c-4.72,0-8.57-6.04-8.57-13.46s3.84-13.46,8.57-13.46,8.57,6.04,8.57,13.46c0,1.15-.09,2.3-.28,3.41l-.99-.16c.17-1.06,.26-2.15,.26-3.25,0-6.87-3.39-12.46-7.57-12.46s-7.57,5.59-7.57,12.46,3.39,12.46,7.57,12.46c1.26,0,2.52-.53,3.62-1.54l.67,.74c-1.29,1.18-2.78,1.8-4.3,1.8Z"/>
          <path class="cls-8" d="M620.6,417.31h-133.26c6.99,0,12.66,9.11,12.66,20.34s-5.67,20.34-12.66,20.34h133.26c6.99,0,12.66-9.11,12.66-20.34s-5.67-20.34-12.66-20.34Z"/>
          <path class="cls-34" d="M620.6,417.31h-114.63c-.31,.04-.49,.06-.49,.06l124.24,6.2c-2.3-3.85-5.53-6.26-9.12-6.26Z"/>
          <ellipse class="cls-40" cx="516.56" cy="399.57" rx="11.08" ry="17.81"/>
          <path class="cls-42" d="M516.56,411.23c-1.52,0-2.98-.7-4.22-2.03l.73-.68c1.04,1.12,2.25,1.71,3.49,1.71,3.56,0,6.45-4.79,6.45-10.67,0-4.38-1.6-8.27-4.08-9.91l.55-.83c2.75,1.82,4.52,6.04,4.52,10.74,0,6.43-3.34,11.67-7.45,11.67Z"/>
          <path class="cls-42" d="M509.59,403.71c-.32-1.32-.48-2.71-.48-4.14,0-4.08,1.32-7.8,3.52-9.93l.7,.72c-1.98,1.92-3.22,5.45-3.22,9.21,0,1.35,.15,2.66,.45,3.9l-.97,.23Z"/>
          <path class="cls-29" d="M633.24,381.76h-116.68c6.12,0,11.08,7.97,11.08,17.81s-4.96,17.81-11.08,17.81h116.68c6.12,0,11.08-7.97,11.08-17.81s-4.96-17.81-11.08-17.81Z"/>
          <path class="cls-20" d="M524.37,386.93l84.66-5.18h-92.47c3.05,0,5.81,1.98,7.81,5.18Z"/>
          <ellipse class="cls-25" cx="492.33" cy="365.6" rx="10.08" ry="16.21"/>
          <path class="cls-46" d="M485.62,369.26c-.26-1.18-.39-2.41-.39-3.66,0-6.12,3.18-11.11,7.1-11.11,1.29,0,2.56,.54,3.65,1.56l-.68,.73c-.91-.85-1.93-1.29-2.97-1.29-3.36,0-6.1,4.53-6.1,10.11,0,1.18,.12,2.34,.37,3.45l-.98,.22Z"/>
          <path class="cls-46" d="M492.33,376.7c-1.76,0-3.45-1-4.75-2.83l.81-.58c1.11,1.55,2.5,2.41,3.93,2.41,3.36,0,6.1-4.53,6.1-10.1,0-1.54-.21-3.01-.61-4.39l.96-.28c.43,1.47,.65,3.04,.65,4.67,0,6.12-3.18,11.1-7.1,11.1Z"/>
          <path class="cls-46" d="M492.33,371.41c-2.13,0-3.81-2.55-3.81-5.81s1.67-5.81,3.81-5.81,3.81,2.55,3.81,5.81-1.67,5.81-3.81,5.81Zm0-10.63c-1.52,0-2.81,2.2-2.81,4.81s1.29,4.81,2.81,4.81,2.81-2.2,2.81-4.81-1.29-4.81-2.81-4.81Z"/>
          <path class="cls-32" d="M598.51,349.39h-106.18c5.57,0,10.08,7.26,10.08,16.21s-4.51,16.21-10.08,16.21h106.18c5.57,0,10.08-7.26,10.08-16.21s-4.51-16.21-10.08-16.21Z"/>
          <g>
            <rect class="cls-42" x="536.72" y="386.87" width="68.25" height="1"/>
            <rect class="cls-42" x="610.57" y="386.87" width="8.31" height="1"/>
            <rect class="cls-42" x="540.15" y="399.07" width="45.14" height="1"/>
            <path class="cls-42" d="M610.57,398.52h-18.62l-.15-.14c-.19-.18-4.68-4.43-11.18-1.88l-.37-.93c6.41-2.52,11.17,1.17,12.08,1.95h18.23v1Z"/>
            <rect class="cls-42" x="595.51" y="402.94" width="42.51" height="1"/>
            <rect class="cls-42" x="547.37" y="408.9" width="37.92" height="1"/>
            <rect class="cls-42" x="610.57" y="408.9" width="14.44" height="1"/>
          </g>
          <path class="cls-42" d="M516.21,404.77c-3.9-3.86-1.11-10.1-.99-10.36l.91,.41c-.03,.06-2.61,5.87,.79,9.24l-.7,.71Z"/>
          <path class="cls-46" d="M486.76,444.79c-1.35,0-2.63-.54-3.4-1.51-.79-1-.99-2.28-1.08-3.5-.22-2.88,.08-5.24,.91-7.21,.43-1.03,.96-1.77,1.61-2.26,.89-.67,2.03-.83,2.91-.41,1.06,.5,1.65,1.68,1.77,3.49,.05,.8,.06,1.83-.31,2.78-.41,1.04-1.25,1.82-2.19,2.01l-.2-.98c.62-.13,1.18-.66,1.46-1.39,.3-.76,.29-1.62,.24-2.36-.06-.98-.32-2.23-1.2-2.65-.54-.25-1.29-.13-1.88,.31-.5,.38-.93,.98-1.29,1.85-.77,1.82-1.04,4.03-.83,6.75,.08,1.07,.24,2.17,.87,2.96,.79,.99,2.34,1.39,3.77,.96,1.22-.37,2.38-1.26,3.44-2.65l.8,.61c-1.19,1.56-2.52,2.57-3.94,3-.48,.14-.96,.21-1.44,.21Z"/>
          <polygon class="cls-23" points="613.52 427.63 566.2 427.61 556.81 424.99 509.61 424.99 509.61 423.99 557.02 424.01 566.4 426.63 613.52 426.63 613.52 427.63"/>
          <rect class="cls-23" x="566.33" y="433.37" width="14.11" height="1"/>
          <rect class="cls-23" x="507.16" y="442.02" width="70.04" height="1"/>
          <path class="cls-46" d="M555.73,362.84c-1.52,0-3.04-.02-4.55-.07-1-.03-1.96-.11-2.77-.65-.44-.29-.76-.68-1.07-1.06-.11-.13-.22-.27-.33-.39-1.4-1.55-3.78-2.31-6.21-1.95-2.21,.32-4.39,1.27-6.32,2.76l-.14,.1h-23.06v-1h22.72c2.03-1.53,4.32-2.52,6.65-2.85,2.75-.4,5.47,.47,7.09,2.27,.12,.14,.24,.28,.36,.43,.28,.33,.54,.65,.85,.87,.59,.4,1.36,.45,2.24,.48,2.88,.1,5.8,.1,8.68,.01l.03,1c-1.39,.04-2.79,.06-4.2,.06Z"/>
          <path class="cls-46" d="M547.05,368c-1.61,0-3.08-.34-4.32-1.02-.4-.22-.78-.46-1.16-.7-.52-.33-1.02-.64-1.54-.89-2.74-1.3-6.09-.78-8.79-.35l-.16-.99c2.83-.45,6.35-1,9.37,.44,.58,.28,1.12,.62,1.65,.95,.37,.23,.73,.46,1.11,.67,2.89,1.58,6.45,.72,8.31,.07l.17-.03h39.56v1h-39.47c-1.65,.57-3.25,.86-4.72,.86Z"/>
          <rect class="cls-46" x="567.55" y="356.42" width="25.79" height="1"/>
          <rect class="cls-46" x="514.65" y="370.41" width="16.52" height="1"/>
          <rect class="cls-46" x="561.56" y="374.63" width="26.66" height="1"/>
          <path class="cls-22" d="M552.17,437.65c7.33,5.82,9.04,20.34,9.04,20.34h8.56c-5.24-17.63-17.6-20.34-17.6-20.34Z"/>
          <path class="cls-22" d="M595.51,431.2c-9.67,10.48-10.22,26.79-10.22,26.79h10.22c-3.39-9.87,0-26.79,0-26.79Z"/>
          <polygon class="cls-22" points="576.15 447.82 578.35 457.99 586.5 457.99 576.15 447.82"/>
          <path class="cls-22" d="M607.77,435.24c-3.45,7.57-3.35,22.75-3.35,22.75h4.5c.57-7.52-1.15-22.75-1.15-22.75Z"/>
          <path class="cls-22" d="M598.57,449.32c-2.4,2.68-3.06,8.67-3.06,8.67h4.79c-.38-3.31-1.72-8.67-1.72-8.67Z"/>
          <path class="cls-22" d="M616.76,439.04s-4.31,9.94-3.24,18.95h7.76s-4.86-12.08-4.52-18.95Z"/>
          <path class="cls-22" d="M528.34,437.24c-6.02,5.36-9.1,20.76-9.1,20.76h10.98c-5.22-6.82-1.87-20.76-1.87-20.76Z"/>
          <polygon class="cls-22" points="518.7 457.99 512.01 448.88 512.71 457.99 518.7 457.99"/>
          <polygon class="cls-22" points="537.98 457.99 542.18 447.82 542.18 457.99 537.98 457.99"/>
        </g>
        <g>
          <path class="cls-14" d="M215.14,298.02c-24.14,72.43-60.86,155.64-60.86,155.64h126.75c-34.71-64.42-65.89-155.64-65.89-155.64Z"/>
          <path class="cls-2" d="M389.68,298.02H215.14s31.19,91.22,65.89,155.64h165.48s-51.31-81.7-56.84-155.64Z"/>
          <path class="cls-6" d="M332.68,453.66h113.84s-19.4-30.91-35.63-71.9h0s3.35,47.01-78.2,71.9Z"/>
          <path class="cls-33" d="M446.52,453.66s-9.07-14.45-20-36.7c-2.4,10.69-9.19,24.15-26.27,36.7h46.27Z"/>
          <path class="cls-24" d="M215.14,355.78c-7.33,57.86-32.67,97.88-32.67,97.88h60.74c-22.78-30.07-28.07-97.88-28.07-97.88Z"/>
          <path class="cls-12" d="M215.14,355.78s5.29,67.82,28.07,97.88l15.18-16s-38.71-46.16-43.26-81.88Z"/>
          <g>
            <path class="cls-24" d="M392.96,362.27h-49.27s-.01,20.21,10.19,33.88h49.27c-10.2-13.67-10.19-33.88-10.19-33.88Z"/>
            <path class="cls-14" d="M393.35,362.27h-49.66s1.53,10.2,9.81,11.36h49.66c-8.28-1.16-9.81-11.36-9.81-11.36Z"/>
            <path class="cls-12" d="M407.14,365.34h-48.06c-.09,6.48-2.95,7.92-4.75,8.19l48.82,.1c4.21-2.68,3.99-8.29,3.99-8.29Z"/>
            <path class="cls-14" d="M353.88,396.15h49.27c-2.58-3.46-4.51-7.34-5.95-11.21h-49.27c1.44,3.87,3.37,7.75,5.95,11.21Z"/>
          </g>
          <g>
            <path class="cls-24" d="M322.45,362.27h-49.27s-.01,20.21,10.19,33.88h49.27c-10.2-13.67-10.19-33.88-10.19-33.88Z"/>
            <path class="cls-14" d="M322.83,362.27h-49.66s1.53,10.2,9.81,11.36h49.66c-8.28-1.16-9.81-11.36-9.81-11.36Z"/>
            <path class="cls-12" d="M336.63,365.34h-48.06c-.09,6.48-2.95,7.92-4.75,8.19l48.82,.1c4.21-2.68,3.99-8.29,3.99-8.29Z"/>
            <path class="cls-14" d="M283.37,396.15h49.27c-2.58-3.46-4.51-7.34-5.95-11.21h-49.27c1.44,3.87,3.37,7.75,5.95,11.21Z"/>
          </g>
          <polygon class="cls-29" points="309.73 453.66 316.39 432.68 319.72 433.84 312.93 453.66 309.73 453.66"/>
          <polygon class="cls-2" points="451.53 453.66 458.19 432.68 461.52 433.84 454.73 453.66 451.53 453.66"/>
          <polygon class="cls-29" points="143.29 453.66 136.63 432.68 133.3 433.84 140.09 453.66 143.29 453.66"/>
          <path class="cls-22" d="M286.16,435.54s.17,12.5,4.36,18.11h7.97l-12.33-18.11Z"/>
          <path class="cls-22" d="M327.34,429.61c4.19,9.94,5.3,24.05,5.3,24.05h8.13c-4.71-17.65-13.43-24.05-13.43-24.05Z"/>
          <path class="cls-22" d="M356.13,423.68c-5.58,11.17-7.5,29.98-7.5,29.98h6.46c1.4-7.88,1.05-29.98,1.05-29.98Z"/>
          <polygon class="cls-22" points="340.77 453.66 344.79 444.6 348.63 453.66 340.77 453.66"/>
          <path class="cls-22" d="M392.57,423.02c-4.91,8.75-7.21,30.63-7.21,30.63h9.67c-4.6-15.56-2.46-30.63-2.46-30.63Z"/>
          <path class="cls-22" d="M369.4,442.48s-2.15,3.91,0,11.18h6.15s-6.15-5.54-6.15-11.18Z"/>
          <polygon class="cls-22" points="399.04 453.66 404.2 443.17 406.09 453.66 399.04 453.66"/>
          <g>
            <path class="cls-42" d="M133.65,444.95l-.71-.71c31.3-31.29,81.24-145.27,81.74-146.42l.42-.97,.48,.94c.15,.29,15.28,29.69,35.62,61.7,26.9,42.32,50.67,69.97,68.75,79.96l-.48,.88c-10.18-5.63-22.03-16.61-35.21-32.64-10.53-12.8-21.93-28.84-33.9-47.67-18.34-28.86-32.45-55.59-35.18-60.84-4.93,11.17-51.63,115.88-81.53,145.77Z"/>
            <rect class="cls-42" x="315.63" y="434.4" width="1" height="9" transform="translate(-121.01 120.34) rotate(-18.15)"/>
            <rect class="cls-42" x="314.37" y="439.08" width="1" height="6.79" transform="translate(-211.63 309.34) rotate(-40.37)"/>
            <rect class="cls-42" x="135.7" y="443.77" width="6.2" height="1" transform="translate(-46.49 17.29) rotate(-6.11)"/>
            <rect class="cls-42" x="137.09" y="434.7" width="1" height="9.18" transform="translate(-321.89 411.38) rotate(-69.13)"/>
            <path class="cls-42" d="M463.18,442.05c-36.61-24.39-73.6-142.69-73.97-143.88l.96-.3c.37,1.19,37.25,119.15,73.57,143.34l-.55,.83Z"/>
            <rect class="cls-42" x="454.19" y="437.66" width="8.48" height="1" transform="translate(-82.02 106.42) rotate(-12.16)"/>
            <rect class="cls-42" x="456.41" y="439.06" width="1" height="6.68" transform="translate(-78.66 785.41) rotate(-76.71)"/>
          </g>
          <path class="cls-16" d="M222.29,453.66h20.92c-22.78-30.07-28.07-97.88-28.07-97.88,0,.03,0,.06-.01,.09-.33,2.51-8.38,65.27,7.16,97.79Z"/>
        </g>
      </g>
      <g>
        <g>
          <polygon class="cls-32" points="163.33 229.52 152.06 229.52 150.61 214.23 164.78 214.23 163.33 229.52"/>
          <rect class="cls-8" x="148.1" y="214.23" width="19.18" height="2.55"/>
          <g>
            <polygon class="cls-29" points="163.54 227.23 163.65 226.11 151.73 226.11 151.84 227.23 163.54 227.23"/>
            <polygon class="cls-29" points="151.48 223.44 151.58 224.55 163.8 224.55 163.9 223.44 151.48 223.44"/>
            <polygon class="cls-29" points="150.97 218.08 151.08 219.2 164.31 219.2 164.41 218.08 150.97 218.08"/>
            <polygon class="cls-29" points="151.23 220.76 151.33 221.88 164.05 221.88 164.16 220.76 151.23 220.76"/>
          </g>
        </g>
        <g>
          <rect class="cls-1" x="152.13" y="204.96" width=".75" height="9.31" transform="translate(-24.42 20.16) rotate(-7)"/>
          <rect class="cls-1" x="158.29" y="209.23" width="9.29" height=".75" transform="translate(-63.24 348.64) rotate(-83.72)"/>
          <rect class="cls-1" x="157.32" y="204.99" width=".75" height="9.24"/>
        </g>
        <g>
          <path class="cls-11" d="M218.32,114.54c-5.71-50.51-59.25-48.91-59.25-48.91h-2.78s-53.53-1.6-59.25,48.91c-4.53,40.02,53.49,91.6,53.49,91.6h14.28s58.02-51.58,53.49-91.6Z"/>
          <path class="cls-7" d="M206.54,114.54c-4.6-50.51-47.73-48.91-47.73-48.91h-2.24s-43.13-1.6-47.73,48.91c-3.65,40.02,43.09,91.6,43.09,91.6h11.51s46.74-51.58,43.09-91.6Z"/>
          <path class="cls-4" d="M202.83,114.54c-4.16-50.51-43.1-48.91-43.1-48.91h-2.02s-38.95-1.6-43.1,48.91c-3.29,40.02,38.92,91.6,38.92,91.6h10.39s42.21-51.58,38.92-91.6Z"/>
          <path class="cls-11" d="M185.72,114.54c-2.64-50.51-27.39-48.91-27.39-48.91h-1.28s-24.75-1.6-27.39,48.91c-2.09,40.02,24.73,91.6,24.73,91.6h6.6s26.82-51.58,24.73-91.6Z"/>
          <path class="cls-7" d="M172.99,114.54c-1.44-50.51-14.95-48.91-14.95-48.91h-.7s-13.51-1.6-14.95,48.91c-1.14,40.02,13.5,91.6,13.5,91.6h3.6s14.64-51.58,13.5-91.6Z"/>
          <path class="cls-4" d="M169.1,114.54c-1.07-50.51-11.15-48.91-11.15-48.91h-.52s-10.07-1.6-11.15,48.91c-.85,40.02,10.06,91.6,10.06,91.6h2.69s10.91-51.58,10.06-91.6Z"/>
        </g>
      </g>
    </g>
  </g>
</svg>